<svg width="35" height="35" viewBox="0 0 35 35" fill="none" xmlns="http://www.w3.org/2000/svg">
<g id="next (2) 1">
<g id="Group">
<g id="Group_2">
<path id="Vector" d="M33.3114 16.0923H1.40754C0.630145 16.0923 0 16.7228 0 17.4998C0 18.2768 0.630077 18.9074 1.40754 18.9074H33.3114C34.0888 18.9074 34.719 18.2773 34.719 17.4998C34.719 16.7224 34.0889 16.0923 33.3114 16.0923Z" fill="black"/>
</g>
</g>
<g id="Group_3">
<g id="Group_4">
<path id="Vector_2" d="M34.5875 16.5042L20.7943 2.7104C20.2444 2.16099 19.3539 2.16099 18.804 2.7104C18.2541 3.26029 18.2541 4.15171 18.804 4.70112L31.6022 17.4997L18.804 30.2984C18.2541 30.8478 18.2541 31.7393 18.804 32.2887C19.079 32.5636 19.4388 32.7011 19.7991 32.7011C20.1595 32.7011 20.5193 32.5636 20.7943 32.2887L34.5875 18.4949C35.1374 17.945 35.1374 17.0536 34.5875 16.5042Z" fill="black"/>
</g>
</g>
</g>
</svg>
